<svg xmlns="http://www.w3.org/2000/svg" width="120" height="120" viewBox="0 0 120 120" fill="none"><path d="M52 52L66 22H76L72 52H52Z" fill="#74C0FC" />
<path d="M52 76L66 106H76L72 76H52Z" fill="#74C0FC" />
<path d="M16 60L10 38H20L32 52L16 60Z" fill="#74C0FC" />
<path d="M14 64C14 56 22 52 30 52H92C104 52 112 58 112 64C112 70 104 76 92 76H30C22 76 14 72 14 64Z" fill="#E7F5FF" stroke="#74C0FC" stroke-width="3" />
<path d="M74 67.5C75.933 67.5 77.5 65.933 77.5 64C77.5 62.067 75.933 60.5 74 60.5C72.067 60.5 70.5 62.067 70.5 64C70.5 65.933 72.067 67.5 74 67.5Z" fill="#4DABF7" />
<path d="M84 67.5C85.933 67.5 87.5 65.933 87.5 64C87.5 62.067 85.933 60.5 84 60.5C82.067 60.5 80.5 62.067 80.5 64C80.5 65.933 82.067 67.5 84 67.5Z" fill="#4DABF7" />
<path d="M94 67.5C95.933 67.5 97.5 65.933 97.5 64C97.5 62.067 95.933 60.5 94 60.5C92.067 60.5 90.5 62.067 90.5 64C90.5 65.933 92.067 67.5 94 67.5Z" fill="#4DABF7" />
</svg>