<svg xmlns="http://www.w3.org/2000/svg" width="120" height="120" viewBox="0 0 120 120" fill="none"><path d="M111 102H9C7.34315 102 6 103.343 6 105C6 106.657 7.34315 108 9 108H111C112.657 108 114 106.657 114 105C114 103.343 112.657 102 111 102Z" fill="#EFE6D3" />
<path d="M65 46H55C53.3431 46 52 47.3431 52 49V101C52 102.657 53.3431 104 55 104H65C66.6569 104 68 102.657 68 101V49C68 47.3431 66.6569 46 65 46Z" fill="#B9A8FF" />
<path d="M34 30H86L80 48H40L34 30Z" fill="#7B61F8" />
<path d="M77 34H43C41.3431 34 40 35.3431 40 37V39C40 40.6569 41.3431 42 43 42H77C78.6569 42 80 40.6569 80 39V37C80 35.3431 78.6569 34 77 34Z" fill="#A9D6FF" />
<path d="M62 18C62 16.8954 61.1046 16 60 16C58.8954 16 58 16.8954 58 18V28C58 29.1046 58.8954 30 60 30C61.1046 30 62 29.1046 62 28V18Z" fill="#7B61F8" />
<path d="M60 19C62.2091 19 64 17.2091 64 15C64 12.7909 62.2091 11 60 11C57.7909 11 56 12.7909 56 15C56 17.2091 57.7909 19 60 19Z" fill="#FF6B6B" />
<path d="M101.5 94H18.5C17.1193 94 16 95.1193 16 96.5C16 97.8807 17.1193 99 18.5 99H101.5C102.881 99 104 97.8807 104 96.5C104 95.1193 102.881 94 101.5 94Z" fill="#D9D3E6" />
</svg>