<svg xmlns="http://www.w3.org/2000/svg" width="120" height="120" viewBox="0 0 120 120" fill="none"><path d="M60 110C74.3594 110 86 98.3594 86 84C86 69.6406 74.3594 58 60 58C45.6406 58 34 69.6406 34 84C34 98.3594 45.6406 110 60 110Z" fill="white" stroke="#D9E6F5" stroke-width="3" />
<path d="M60 62C69.9411 62 78 53.9411 78 44C78 34.0589 69.9411 26 60 26C50.0589 26 42 34.0589 42 44C42 53.9411 50.0589 62 60 62Z" fill="white" stroke="#D9E6F5" stroke-width="3" />
<path d="M42 60C54 65.3333 66 65.3333 78 60" stroke="#FF6B6B" stroke-width="7" stroke-linecap="round" />
<path d="M74 22H46C44.8954 22 44 22.8954 44 24V27C44 28.1046 44.8954 29 46 29H74C75.1046 29 76 28.1046 76 27V24C76 22.8954 75.1046 22 74 22Z" fill="#5B45C8" />
<path d="M67 8H53C51.3431 8 50 9.34315 50 11V21C50 22.6569 51.3431 24 53 24H67C68.6569 24 70 22.6569 70 21V11C70 9.34315 68.6569 8 67 8Z" fill="#5B45C8" />
<path d="M54 43.5C55.3807 43.5 56.5 42.3807 56.5 41C56.5 39.6193 55.3807 38.5 54 38.5C52.6193 38.5 51.5 39.6193 51.5 41C51.5 42.3807 52.6193 43.5 54 43.5Z" fill="#241F48" />
<path d="M66 43.5C67.3807 43.5 68.5 42.3807 68.5 41C68.5 39.6193 67.3807 38.5 66 38.5C64.6193 38.5 63.5 39.6193 63.5 41C63.5 42.3807 64.6193 43.5 66 43.5Z" fill="#241F48" />
<path d="M60 46L74 49L60 52V46Z" fill="#FF9F43" />
<path d="M60 83C61.6569 83 63 81.6569 63 80C63 78.3431 61.6569 77 60 77C58.3431 77 57 78.3431 57 80C57 81.6569 58.3431 83 60 83Z" fill="#5B45C8" />
<path d="M60 95C61.6569 95 63 93.6569 63 92C63 90.3431 61.6569 89 60 89C58.3431 89 57 90.3431 57 92C57 93.6569 58.3431 95 60 95Z" fill="#5B45C8" />
</svg>